<?xml version="1.0" encoding="UTF-8"?>
<svg version="1.1" xmlns="http://www.w3.org/2000/svg" width="200" height="200">
<path d="M0 0 C66 0 132 0 200 0 C200 66 200 132 200 200 C134 200 68 200 0 200 C0 134 0 68 0 0 Z " fill="#FEFEFE" transform="translate(0,0)"/>
<path d="M0 0 C1.07443359 0.01804687 2.14886719 0.03609375 3.25585938 0.0546875 C5.90065465 0.10170608 8.54361589 0.1674084 11.1875 0.25 C11.05472656 1.10722656 10.92195313 1.96445313 10.78515625 2.84765625 C10.60855469 3.99105469 10.43195313 5.13445312 10.25 6.3125 C9.96576172 8.09140625 9.96576172 8.09140625 9.67578125 9.90625 C9.31109461 12.4036241 9.08615933 14.80180917 8.9375 17.3125 C8.1875 20.25 8.1875 20.25 5.1875 22.625 C4.1975 23.16125 3.2075 23.6975 2.1875 24.25 C1.8575 24.58 1.5275 24.91 1.1875 25.25 C-0.52022358 25.33713831 -2.23148649 25.35700007 -3.94140625 25.34765625 C-5.49311523 25.34282227 -5.49311523 25.34282227 -7.07617188 25.33789062 C-8.16478516 25.32951172 -9.25339844 25.32113281 -10.375 25.3125 C-12.0137207 25.30573242 -12.0137207 25.30573242 -13.68554688 25.29882812 C-16.39458495 25.28699826 -19.10351599 25.27051543 -21.8125 25.25 C-21.55632807 22.68526688 -21.28315547 20.12427663 -21 17.5625 C-20.92974609 16.84126953 -20.85949219 16.12003906 -20.78710938 15.37695312 C-20.13916279 9.70094107 -18.59627431 6.35192243 -14.86328125 1.953125 C-10.07465854 -0.72016501 -5.37905625 -0.17086801 0 0 Z " fill="#55C97B" transform="translate(164.8125,90.75)"/>
<path d="M0 0 C5.05362021 -0.12371396 10.10635702 -0.21439046 15.16113281 -0.2746582 C16.88003901 -0.29978367 18.59883856 -0.33389047 20.31738281 -0.37719727 C22.78998114 -0.43794029 25.26116606 -0.46622762 27.734375 -0.48828125 C28.50118591 -0.51408768 29.26799683 -0.5398941 30.05804443 -0.56648254 C33.96846213 -0.56853237 35.6227434 -0.35973033 38.50146484 2.38525391 C40.16779711 5.29278381 40.38153001 6.42738661 39.875 9.6875 C39.68744141 10.97333984 39.68744141 10.97333984 39.49609375 12.28515625 C38.71919119 16.53670962 37.9252755 20.7778691 37 25 C34.36 25 31.72 25 29 25 C29.52405563 18.30992818 30.10463925 11.6512513 31 5 C28.69 4.67 26.38 4.34 24 4 C23.01 10.93 22.02 17.86 21 25 C18.36 25 15.72 25 13 25 C12.56769509 17.65081658 14.18225815 11.09784913 16 4 C13.03 4 10.06 4 7 4 C6.93941406 4.845625 6.87882813 5.69125 6.81640625 6.5625 C6.36040967 12.7359922 5.84179888 18.86689384 5 25 C2.03 25 -0.94 25 -4 25 C-3.71397129 22.52007026 -3.42129511 20.04120761 -3.125 17.5625 C-3.04636719 16.87478516 -2.96773438 16.18707031 -2.88671875 15.47851562 C-2.2523159 10.23249206 -1.22616826 5.13862293 0 0 Z " fill="#57C97D" transform="translate(9,91)"/>
<path d="M0 0 C2.64 0 5.28 0 8 0 C7.20096378 9.74824187 5.57475983 19.353358 4 29 C7.96 29 11.92 29 16 29 C16.33 23.72 16.66 18.44 17 13 C14.03 12.505 14.03 12.505 11 12 C11 10.68 11 9.36 11 8 C20.96145401 7.22712857 20.96145401 7.22712857 24.6875 10 C28.15548216 17.92681636 25.06625637 24.7349745 23 33 C13.76 33 4.52 33 -5 33 C-3.87216391 21.80839569 -2.42951171 10.98139293 0 0 Z " fill="#56CA7D" transform="translate(117,83)"/>
<path d="M0 0 C2.64 0 5.28 0 8 0 C7.60246689 6.47019414 6.85739657 12.90653296 5.875 19.3125 C5.79467529 19.98152344 5.71435059 20.65054688 5.6315918 21.33984375 C4.82669046 26.1680495 3.02896564 28.99584427 -0.7578125 31.90795898 C-5.26758937 34.10441281 -10.03640292 33.61229707 -14.9375 33.375 C-16.00291016 33.34792969 -17.06832031 33.32085937 -18.16601562 33.29296875 C-20.77946823 33.22265164 -23.38865175 33.12430438 -26 33 C-25.84731171 31.43219812 -25.69342942 29.86451249 -25.5390625 28.296875 C-25.45350098 27.42385742 -25.36793945 26.55083984 -25.27978516 25.65136719 C-24.10956377 14.56183468 -24.10956377 14.56183468 -20.0625 10.4375 C-15.48595314 6.91782519 -10.50687546 7.46225809 -5 8 C-5 9.32 -5 10.64 -5 12 C-7.64 12.33 -10.28 12.66 -13 13 C-14.93581306 18.25434973 -15.96168893 23.51178434 -17 29 C-10.565 28.505 -10.565 28.505 -4 28 C-4.04125 27.07058594 -4.0825 26.14117187 -4.125 25.18359375 C-4.125 20.03165159 -3.0178883 15.09348169 -2 10.0625 C-1.71382812 8.6074707 -1.71382812 8.6074707 -1.421875 7.12304688 C-0.95378085 4.74746905 -0.47969098 2.37325835 0 0 Z " fill="#56C97C" transform="translate(106,83)"/>
<path d="M0 0 C7.59 0 15.18 0 23 0 C22 11 22 11 19.0625 14.6875 C14.68469774 17.87052706 10.1952764 17.56447671 5 17 C5 15.68 5 14.36 5 13 C7.31 13 9.62 13 12 13 C12 12.34 12 11.68 12 11 C12.66 11 13.32 11 14 11 C14.33 8.69 14.66 6.38 15 4 C11.37 4.33 7.74 4.66 4 5 C2.4541735 8.86456624 1.55176187 11.80026892 0.875 15.8125 C0.441875 18.3803125 0.441875 18.3803125 0 21 C6.6 21 13.2 21 20 21 C20 22.32 20 23.64 20 25 C10.43 25 0.86 25 -9 25 C-7.44528302 7.89811321 -7.44528302 7.89811321 -3.5234375 3.25 C-2 2 -2 2 0 2 C0 1.34 0 0.68 0 0 Z " fill="#58CA7E" transform="translate(58,91)"/>
<path d="M0 0 C2.64 0 5.28 0 8 0 C7.67 2.64 7.34 5.28 7 8 C9.64 8 12.28 8 15 8 C15 9.32 15 10.64 15 12 C12.03 12 9.06 12 6 12 C5.67 17.28 5.34 22.56 5 28 C6.98 28.33 8.96 28.66 11 29 C11 30.32 11 31.64 11 33 C1.00996441 33.77508897 1.00996441 33.77508897 -2.6875 30.9375 C-5.66947154 24.2635637 -3.39255458 16.94529512 -2 10.0625 C-1.80921875 9.09248047 -1.6184375 8.12246094 -1.421875 7.12304688 C-0.95378085 4.74746905 -0.47969098 2.37325835 0 0 Z " fill="#53C87A" transform="translate(180,83)"/>
<path d="M0 0 C2.125 2.125 2.125 2.125 4 5 C3.375 8 3.375 8 2 11 C1.71125 11.9075 1.4225 12.815 1.125 13.75 C-0.22072612 16.44145225 -1.29074285 16.8638599 -4 18 C-4.33 18.66 -4.66 19.32 -5 20 C-4.34 20.33 -3.68 20.66 -3 21 C-9.6 21 -16.2 21 -23 21 C-21.98701299 6.98701299 -21.98701299 6.98701299 -19 4 C-17.14712498 3.92773498 -15.29166122 3.9161878 -13.4375 3.9375 C-12.42558594 3.94652344 -11.41367188 3.95554687 -10.37109375 3.96484375 C-9.19740234 3.98224609 -9.19740234 3.98224609 -8 4 C-8.33 6.31 -8.66 8.62 -9 11 C-9.66 11 -10.32 11 -11 11 C-11 11.66 -11 12.32 -11 13 C-13.31 13 -15.62 13 -18 13 C-18 14.32 -18 15.64 -18 17 C-9.9181622 16.84811162 -9.9181622 16.84811162 -3.1171875 12.80859375 C-0.75058924 8.97735251 -0.44741145 4.40468859 0 0 Z " fill="#EDF8F1" transform="translate(81,91)"/>
<path d="M0 0 C2 3 2 3 2 6 C1.34 6 0.68 6 0 6 C0.33 6.99 0.66 7.98 1 9 C1.66 9 2.32 9 3 9 C3 9.99 3 10.98 3 12 C3.969375 11.979375 4.93875 11.95875 5.9375 11.9375 C9 12 9 12 10 13 C9.93511249 14.56614842 9.7973337 16.12951016 9.625 17.6875 C9.52574219 18.58597656 9.42648438 19.48445313 9.32421875 20.41015625 C8.96372576 23.28975691 8.52575724 26.1458893 8 29 C4.04 29 0.08 29 -4 29 C-2.07289294 9.03189066 -2.07289294 9.03189066 0 0 Z " fill="#F3FAF5" transform="translate(125,83)"/>
<path d="M0 0 C0.98613281 0.05800781 1.97226563 0.11601563 2.98828125 0.17578125 C3.98214844 0.22089844 4.97601563 0.26601562 6 0.3125 C6.75925781 0.37050781 7.51851562 0.42851563 8.30078125 0.48828125 C8.01865235 2.76031927 7.72475269 5.03089809 7.42578125 7.30078125 C7.26335937 8.56535156 7.1009375 9.82992187 6.93359375 11.1328125 C6.30078125 14.48828125 6.30078125 14.48828125 4.30078125 17.48828125 C1.69921875 17.78125 1.69921875 17.78125 -1.32421875 17.67578125 C-2.82855469 17.63517578 -2.82855469 17.63517578 -4.36328125 17.59375 C-5.13414062 17.55894531 -5.905 17.52414063 -6.69921875 17.48828125 C-6.6114942 15.59161599 -6.50330574 13.69589132 -6.38671875 11.80078125 C-6.32871094 10.74503906 -6.27070313 9.68929687 -6.2109375 8.6015625 C-5.48235716 4.16890198 -4.77042167 0.86295616 0 0 Z " fill="#EFF9F3" transform="translate(158.69921875,94.51171875)"/>
<path d="M0 0 C7.59 0 15.18 0 23 0 C22.50207957 3.21988544 22.00186007 6.43945093 21.484375 9.65625 C21.12063091 12.16725762 20.92314859 14.53971214 20.8125 17.0625 C19.87384449 20.4561007 19.35434656 20.73893473 16.4375 22.4375 C14.7359375 23.2109375 14.7359375 23.2109375 13 24 C12.87625 23.360625 12.7525 22.72125 12.625 22.0625 C12.41875 21.381875 12.2125 20.70125 12 20 C11.34 19.67 10.68 19.34 10 19 C10.28875 18.195625 10.5775 17.39125 10.875 16.5625 C11.98585699 13.0447862 12.79255485 9.56179959 13.53515625 5.953125 C14 4 14 4 15 2 C10.05 1.67 5.1 1.34 0 1 C0 0.67 0 0.34 0 0 Z " fill="#5ECB83" transform="translate(153,91)"/>
<path d="M0 0 C2.64 0 5.28 0 8 0 C7.25166929 8.36948823 6.14302815 16.6769795 5 25 C4.67 25 4.34 25 4 25 C4 21.04 4 17.08 4 13 C2.68 13.33 1.36 13.66 0 14 C-0.66 13.67 -1.32 13.34 -2 13 C-1.85769192 11.58297487 -1.71099254 10.1663904 -1.5625 8.75 C-1.48128906 7.96109375 -1.40007812 7.1721875 -1.31640625 6.359375 C-1.02365007 4.17635361 -0.57935581 2.1226818 0 0 Z " fill="#61CD86" transform="translate(117,83)"/>
<path d="M0 0 C0.99 0.33 1.98 0.66 3 1 C2.88930176 1.57331055 2.77860352 2.14662109 2.66455078 2.73730469 C-0.34676641 18.33670054 -0.34676641 18.33670054 -3 34 C-5.40311859 29.19376281 -6.05574776 27.37124798 -5.0390625 21.93359375 C-4.81476563 20.72638672 -4.59046875 19.51917969 -4.359375 18.27539062 C-4.11703125 17.00888672 -3.8746875 15.74238281 -3.625 14.4375 C-3.39039062 13.16712891 -3.15578125 11.89675781 -2.9140625 10.58789062 C-1.13579555 1.13579555 -1.13579555 1.13579555 0 0 Z " fill="#E1F5E7" transform="translate(115,82)"/>
<path d="M0 0 C11.88 0 23.76 0 36 0 C36.495 1.485 36.495 1.485 37 3 C36.01 3.33 35.02 3.66 34 4 C33.34 3.67 32.68 3.34 32 3 C31.67 3.66 31.34 4.32 31 5 C28.69 4.67 26.38 4.34 24 4 C23.67 4.99 23.34 5.98 23 7 C22.896875 6.360625 22.79375 5.72125 22.6875 5.0625 C22.460625 4.381875 22.23375 3.70125 22 3 C19.34081834 2.11360611 17.51935359 1.82010975 14.76953125 1.68359375 C13.56586914 1.62075195 13.56586914 1.62075195 12.33789062 1.55664062 C11.50451172 1.51732422 10.67113281 1.47800781 9.8125 1.4375 C8.96751953 1.39431641 8.12253906 1.35113281 7.25195312 1.30664062 C5.16815567 1.20068482 3.08409897 1.0998498 1 1 C0.67 1.66 0.34 2.32 0 3 C0 2.01 0 1.02 0 0 Z " fill="#68CE8A" transform="translate(9,91)"/>
<path d="M0 0 C1.65 0.99 3.3 1.98 5 3 C4.55527344 3.98033203 4.55527344 3.98033203 4.1015625 4.98046875 C2.74058476 8.71109213 2.05851205 12.41020415 1.375 16.3125 C1.2409375 17.05306641 1.106875 17.79363281 0.96875 18.55664062 C0.64113016 20.37025044 0.31991506 22.18501524 0 24 C-0.99 24 -1.98 24 -3 24 C-2.85831863 22.56208484 -2.71148957 21.1246763 -2.5625 19.6875 C-2.48128906 18.88699219 -2.40007812 18.08648437 -2.31640625 17.26171875 C-2 15 -2 15 -1 12 C-0.5982661 6.85056722 -0.5982661 6.85056722 -2 2 C-1.34 2 -0.68 2 0 2 C0 1.34 0 0.68 0 0 Z " fill="#E6F6EB" transform="translate(143,92)"/>
<path d="M0 0 C1 2 1 2 0.5625 4.5625 C-0.12190997 8.7450054 -0.08452457 12.7737713 0 17 C-0.99 16.67 -1.98 16.34 -3 16 C-3 17.32 -3 18.64 -3 20 C-3.66 20 -4.32 20 -5 20 C-5.22535058 13.9155343 -5.01810029 7.80608533 -3 2 C-2.01 1.34 -1.02 0.68 0 0 Z " fill="#5BCB81" transform="translate(27,96)"/>
<path d="M0 0 C1.32 0 2.64 0 4 0 C4.44041451 5.37305699 4.44041451 5.37305699 4 8 C1.5 10 1.5 10 -1 11 C-3 8 -3 8 -3 4 C-2.34 3.67 -1.68 3.34 -1 3 C-0.67 2.01 -0.34 1.02 0 0 Z " fill="#4FC777" transform="translate(76,94)"/>
<path d="M0 0 C0.99386719 0.02707031 1.98773438 0.05414063 3.01171875 0.08203125 C4.15060547 0.13423828 4.15060547 0.13423828 5.3125 0.1875 C5.3125 1.5075 5.3125 2.8275 5.3125 4.1875 C-5.13270548 5.55736301 -5.13270548 5.55736301 -8.6875 3.1875 C-6.10291354 -0.17334451 -4.11082043 -0.14508778 0 0 Z " fill="#71D091" transform="translate(95.6875,90.8125)"/>
<path d="M0 0 C1.65 0 3.3 0 5 0 C6.35439668 2.70879335 6.06501451 5.00933268 6 8 C5.34 8 4.68 8 4 8 C3.67 8.66 3.34 9.32 3 10 C2.01 9.67 1.02 9.34 0 9 C0 6.03 0 3.06 0 0 Z " fill="#4FC877" transform="translate(41,94)"/>
<path d="M0 0 C1.22589844 0.15275391 1.22589844 0.15275391 2.4765625 0.30859375 C3.41628906 0.43427734 3.41628906 0.43427734 4.375 0.5625 C4.375 1.8825 4.375 3.2025 4.375 4.5625 C1.405 4.5625 -1.565 4.5625 -4.625 4.5625 C-4.955 5.5525 -5.285 6.5425 -5.625 7.5625 C-5.955 5.2525 -6.285 2.9425 -6.625 0.5625 C-4.10446405 -0.69776798 -2.7707902 -0.35624445 0 0 Z " fill="#6ED092" transform="translate(190.625,90.4375)"/>
<path d="M0 0 C0.99 0.66 1.98 1.32 3 2 C2.38487182 7.00890086 1.7282448 12.00632136 1 17 C-0.515625 15.80859375 -0.515625 15.80859375 -2 14 C-2.109375 11.66015625 -2.109375 11.66015625 -1.75 9.0625 C-1.64171875 8.20785156 -1.5334375 7.35320312 -1.421875 6.47265625 C-1.04706083 4.27582874 -0.57889638 2.15089949 0 0 Z " fill="#CCEFD5" transform="translate(175,94)"/>
<path d="M0 0 C2.31 0 4.62 0 7 0 C6.25 4.75 6.25 4.75 4 7 C4 6.34 4 5.68 4 5 C2.02 5.99 2.02 5.99 0 7 C0 4.69 0 2.38 0 0 Z " fill="#51C778" transform="translate(117,83)"/>
<path d="M0 0 C6.27 0 12.54 0 19 0 C19 1.32 19 2.64 19 4 C17.02 4 15.04 4 13 4 C13.33 3.01 13.66 2.02 14 1 C7.565 1.495 7.565 1.495 1 2 C0.67 1.34 0.34 0.68 0 0 Z " fill="#5BCC81" transform="translate(59,112)"/>
<path d="M0 0 C0.33 0 0.66 0 1 0 C1 1.65 1 3.3 1 5 C3.31 5 5.62 5 8 5 C8 5.66 8 6.32 8 7 C5.69 8.32 3.38 9.64 1 11 C0.87625 10.360625 0.7525 9.72125 0.625 9.0625 C0.41875 8.381875 0.2125 7.70125 0 7 C-0.66 6.67 -1.32 6.34 -2 6 C-1.34 4.02 -0.68 2.04 0 0 Z " fill="#68CD8A" transform="translate(165,104)"/>
<path d="M0 0 C1.20220203 3.53094302 0.79532349 6.12898982 0.0625 9.75 C-0.13214844 10.73484375 -0.32679687 11.7196875 -0.52734375 12.734375 C-0.68332031 13.48203125 -0.83929688 14.2296875 -1 15 C-2.5078125 13.78125 -2.5078125 13.78125 -4 12 C-4.1796875 9.84375 -4.1796875 9.84375 -3.875 7.5 C-3.78992187 6.7265625 -3.70484375 5.953125 -3.6171875 5.15625 C-2.9064582 2.67319572 -1.95113134 1.64527832 0 0 Z " fill="#D1F1DC" transform="translate(51,98)"/>
<path d="M0 0 C0.66 0 1.32 0 2 0 C2.125 6.625 2.125 6.625 1 10 C0.01 10 -0.98 10 -2 10 C-1.85950482 8.52031676 -1.71245174 7.04125484 -1.5625 5.5625 C-1.48128906 4.73878906 -1.40007812 3.91507812 -1.31640625 3.06640625 C-1 1 -1 1 0 0 Z " fill="#4FC875" transform="translate(168,99)"/>
<path d="M0 0 C0.33 0.66 0.66 1.32 1 2 C1.99 2.33 2.98 2.66 4 3 C3.67 3.66 3.34 4.32 3 5 C3.66 5.33 4.32 5.66 5 6 C5 6.66 5 7.32 5 8 C3.02 8 1.04 8 -1 8 C-0.67 5.36 -0.34 2.72 0 0 Z " fill="#EDF9F1" transform="translate(188,83)"/>
<path d="M0 0 C1.65 0.99 3.3 1.98 5 3 C4.1875 5.4375 4.1875 5.4375 3 8 C2.01 8.33 1.02 8.66 0 9 C-0.66 6.69 -1.32 4.38 -2 2 C-1.34 2 -0.68 2 0 2 C0 1.34 0 0.68 0 0 Z " fill="#EFFAF3" transform="translate(143,92)"/>
<path d="M0 0 C3.3 0 6.6 0 10 0 C9.67 0.99 9.34 1.98 9 3 C6.03 3 3.06 3 0 3 C0 2.01 0 1.02 0 0 Z " fill="#4EC777" transform="translate(128,92)"/>
<path d="M0 0 C0.99 0 1.98 0 3 0 C3.33 1.65 3.66 3.3 4 5 C2.02 5.99 2.02 5.99 0 7 C-0.38133299 5.0085944 -0.71325582 3.00720923 -1 1 C-0.67 0.67 -0.34 0.34 0 0 Z " fill="#5AC97E" transform="translate(76,97)"/>
<path d="M0 0 C0.99 0.33 1.98 0.66 3 1 C2.34 3.97 1.68 6.94 1 10 C0.34 10 -0.32 10 -1 10 C-1.02689216 8.52093108 -1.04634621 7.04172517 -1.0625 5.5625 C-1.07410156 4.73878906 -1.08570312 3.91507812 -1.09765625 3.06640625 C-1 1 -1 1 0 0 Z " fill="#EBF8EF" transform="translate(115,82)"/>
<path d="M0 0 C1.134375 0.020625 2.26875 0.04125 3.4375 0.0625 C3.4375 1.0525 3.4375 2.0425 3.4375 3.0625 C0.5625 3.1875 0.5625 3.1875 -2.5625 3.0625 C-3.2225 2.4025 -3.8825 1.7425 -4.5625 1.0625 C-3.5625 0.0625 -3.5625 0.0625 0 0 Z " fill="#4DC775" transform="translate(190.5625,91.9375)"/>
<path d="M0 0 C1.42944945 2.35438733 2.08661261 3.48032433 1.625 6.25 C1.41875 6.8275 1.2125 7.405 1 8 C-0.65 7.67 -2.3 7.34 -4 7 C-3.34 6.34 -2.68 5.68 -2 5 C-1.29289322 3.35008418 -0.62056011 1.68437744 0 0 Z " fill="#5ECA83" transform="translate(183,108)"/>
<path d="M0 0 C1.23556641 0.01740234 1.23556641 0.01740234 2.49609375 0.03515625 C3.32238281 0.04417969 4.14867188 0.05320312 5 0.0625 C5.63808594 0.07410156 6.27617188 0.08570312 6.93359375 0.09765625 C6.93359375 1.08765625 6.93359375 2.07765625 6.93359375 3.09765625 C3.10286866 3.20118936 0.40655242 2.83413558 -3.06640625 1.09765625 C-2.06640625 0.09765625 -2.06640625 0.09765625 0 0 Z " fill="#4DC877" transform="translate(93.06640625,91.90234375)"/>
<path d="M0 0 C0.33 0 0.66 0 1 0 C1 3.63 1 7.26 1 11 C0.01 10.01 -0.98 9.02 -2 8 C-1.75528519 5.00224356 -1.34661086 2.69322172 0 0 Z " fill="#E0F6E7" transform="translate(175,100)"/>
<path d="M0 0 C-1.98 1.32 -3.96 2.64 -6 4 C-6.33 2.68 -6.66 1.36 -7 0 C-3.86650268 -1.04449911 -3.01031744 -0.93423645 0 0 Z " fill="#5CCB81" transform="translate(109,111)"/>
<path d="M0 0 C0.99 0.66 1.98 1.32 3 2 C3.1875 4.625 3.1875 4.625 3 7 C1 6 1 6 0 3 C-0.66 2.67 -1.32 2.34 -2 2 C-1.34 1.34 -0.68 0.68 0 0 Z " fill="#E8F6EC" transform="translate(99,104)"/>
<path d="M0 0 C2.125 2.125 2.125 2.125 4 5 C3.25 8.3125 3.25 8.3125 2 11 C1.67 11 1.34 11 1 11 C0.67 7.37 0.34 3.74 0 0 Z " fill="#E5F6E8" transform="translate(81,91)"/>
<path d="M0 0 C2.1519437 3.22791555 2.20086443 4.28400809 2 8 C1.01 8.33 0.02 8.66 -1 9 C-1 5.88772805 -0.54372951 3.05847848 0 0 Z " fill="#4EC876" transform="translate(110,88)"/>
</svg>
