<svg id="visual" viewBox="0 0 675 900" width="675" height="900" xmlns="http://www.w3.org/2000/svg" xmlns:xlink="http://www.w3.org/1999/xlink" version="1.1"><g transform="translate(333.1276043374768 455.8013072202682)"><path d="M89.9 -161.6C117.8 -103.5 142.6 -78.9 191.4 -36.7C240.3 5.6 313.2 65.5 326.5 131.2C339.7 196.9 293.3 268.3 228.9 293.4C164.6 318.5 82.3 297.3 -0.2 297.5C-82.7 297.8 -165.3 319.5 -197.8 284.1C-230.3 248.7 -212.6 156 -237.9 77.5C-263.1 -1 -331.3 -65.4 -318.4 -102.9C-305.5 -140.5 -211.5 -151.1 -144.9 -196.7C-78.4 -242.2 -39.2 -322.6 -4.1 -317C31 -311.3 62 -219.7 89.9 -161.6" fill="#FF0066"></path></g></svg>